<svg width="555" height="165" viewBox="0 0 555 165" fill="none" xmlns="http://www.w3.org/2000/svg">
<path d="M155.4 132C150.533 132 146.267 131.1 142.6 129.3C138.933 127.433 136.067 124.867 134 121.6C132 118.267 131 114.4 131 110V79C131 74.5333 132 70.6667 134 67.4C136.067 64.1333 138.933 61.6 142.6 59.8C146.267 57.9333 150.533 57 155.4 57C160.333 57 164.6 57.9333 168.2 59.8C171.867 61.6 174.7 64.1333 176.7 67.4C178.767 70.6667 179.8 74.5333 179.8 79H164.8C164.8 76.0667 163.967 73.8333 162.3 72.3C160.7 70.7667 158.4 70 155.4 70C152.4 70 150.067 70.7667 148.4 72.3C146.8 73.8333 146 76.0667 146 79V110C146 112.867 146.8 115.1 148.4 116.7C150.067 118.233 152.4 119 155.4 119C158.4 119 160.7 118.233 162.3 116.7C163.967 115.1 164.8 112.867 164.8 110V103.7H154V91H179.8V110C179.8 114.4 178.767 118.267 176.7 121.6C174.7 124.867 171.867 127.433 168.2 129.3C164.6 131.1 160.333 132 155.4 132ZM193.161 131V76H207.161V86.5H210.961L206.661 92.9C206.661 86.9667 208.028 82.5 210.761 79.5C213.494 76.5 217.494 75 222.761 75C228.828 75 233.528 76.8333 236.861 80.5C240.261 84.1667 241.961 89.3333 241.961 96V100.5H225.961V97C225.961 94 225.128 91.6667 223.461 90C221.861 88.3333 219.694 87.5 216.961 87.5C214.094 87.5 211.894 88.3333 210.361 90C208.894 91.6667 208.161 94 208.161 97V131H193.161ZM267.822 132C262.289 132 257.889 130.5 254.622 127.5C251.422 124.5 249.822 120.433 249.822 115.3C249.822 109.767 251.722 105.533 255.522 102.6C259.389 99.6 264.922 98.1 272.122 98.1H283.522V94C283.522 91.8667 282.755 90.1667 281.222 88.9C279.755 87.6333 277.755 87 275.222 87C272.889 87 270.955 87.5333 269.422 88.6C267.889 89.6667 266.955 91.1333 266.622 93H252.122C252.722 87.4667 255.122 83.1 259.322 79.9C263.589 76.6333 269.055 75 275.722 75C282.722 75 288.255 76.7333 292.322 80.2C296.455 83.6 298.522 88.2 298.522 94V131H284.022V122H281.622L284.122 118.5C284.122 122.633 282.622 125.933 279.622 128.4C276.689 130.8 272.755 132 267.822 132ZM273.422 121C276.355 121 278.755 120.233 280.622 118.7C282.555 117.1 283.522 115.033 283.522 112.5V106.6H272.422C270.155 106.6 268.322 107.267 266.922 108.6C265.522 109.867 264.822 111.567 264.822 113.7C264.822 115.967 265.589 117.767 267.122 119.1C268.655 120.367 270.755 121 273.422 121ZM311.483 149V76H325.983V86.5H329.483L325.983 90C325.983 85.2667 327.283 81.6 329.883 79C332.483 76.3333 336.049 75 340.583 75C346.116 75 350.549 76.9667 353.883 80.9C357.216 84.7667 358.883 89.9667 358.883 96.5V110.5C358.883 114.833 358.116 118.633 356.583 121.9C355.116 125.1 353.016 127.6 350.283 129.4C347.549 131.133 344.316 132 340.583 132C336.049 132 332.483 130.7 329.883 128.1C327.283 125.433 325.983 121.733 325.983 117L329.483 120.5H325.983L326.483 134V149H311.483ZM335.183 119C337.983 119 340.116 118.233 341.583 116.7C343.116 115.1 343.883 112.867 343.883 110V97C343.883 94.0667 343.116 91.8333 341.583 90.3C340.116 88.7667 337.983 88 335.183 88C332.449 88 330.316 88.8 328.783 90.4C327.249 91.9333 326.483 94.1333 326.483 97V110C326.483 112.867 327.249 115.1 328.783 116.7C330.316 118.233 332.449 119 335.183 119ZM371.444 131V58H386.444V76L385.944 86.5H390.344L385.944 90C385.944 85.3333 387.277 81.6667 389.944 79C392.61 76.3333 396.21 75 400.744 75C406.077 75 410.344 76.8667 413.544 80.6C416.81 84.3333 418.444 89.3 418.444 95.5V131H403.444V97C403.444 94.1333 402.677 91.9333 401.144 90.4C399.677 88.8 397.577 88 394.844 88C392.177 88 390.11 88.8 388.644 90.4C387.177 91.9333 386.444 94.1333 386.444 97V131H371.444ZM431.805 131V117.4H450.805V89.5H434.305V76H464.805V117.4H480.805V131H431.805ZM456.805 67.3C454.071 67.3 451.871 66.6 450.205 65.2C448.605 63.8 447.805 61.9 447.805 59.5C447.805 57.1 448.605 55.2 450.205 53.8C451.871 52.4 454.071 51.7 456.805 51.7C459.538 51.7 461.705 52.4 463.305 53.8C464.971 55.2 465.805 57.1 465.805 59.5C465.805 61.9 464.971 63.8 463.305 65.2C461.705 66.6 459.538 67.3 456.805 67.3ZM520.766 131C515.166 131 510.766 129.4 507.566 126.2C504.366 123 502.766 118.6 502.766 113V89.5H488.266V76H502.766V60.5H517.766V76H538.266V89.5H517.766V113C517.766 116 519.266 117.5 522.266 117.5H537.266V131H520.766Z" fill="#4B93FF"/>
<path d="M111 64.0788L57 3V64.0788V163L111 64.0788Z" fill="#2F4A8F"/>
<path fill-rule="evenodd" clip-rule="evenodd" d="M59 5V162.766L59.903 163L112 65.9574L59 5ZM110.832 66.0911L59.9618 160.849V7.58265L110.832 66.0911Z" fill="#4B93FF" stroke="#4B93FF" stroke-width="3"/>
<path d="M3 64.0788L57 3V64.0788V163L3 64.0788Z" fill="#2F4A8F"/>
<path fill-rule="evenodd" clip-rule="evenodd" d="M56 5V162.766L55.08 163L2 65.9574L56 5ZM3.18954 66.0911L55.0201 160.849V7.58265L3.18954 66.0911Z" fill="#4B93FF" stroke="#4B93FF" stroke-width="3"/>
<path fill-rule="evenodd" clip-rule="evenodd" d="M57 83.9205L4.30172 66L4 66.9769L57 85L110 66.9769L109.698 66L57 83.9205Z" fill="#4B93FF" stroke="#4B93FF" stroke-width="3"/>
</svg>
