<svg width="467" height="248" viewBox="0 0 467 248" fill="none" xmlns="http://www.w3.org/2000/svg">
<path d="M194.773 120.318C194.394 119.091 193.871 117.992 193.205 117.023C192.553 116.038 191.765 115.197 190.841 114.5C189.932 113.803 188.886 113.28 187.705 112.932C186.523 112.568 185.235 112.386 183.841 112.386C181.341 112.386 179.114 113.015 177.159 114.273C175.205 115.53 173.667 117.379 172.545 119.818C171.439 122.242 170.886 125.197 170.886 128.682C170.886 132.197 171.439 135.174 172.545 137.614C173.652 140.053 175.189 141.909 177.159 143.182C179.129 144.439 181.417 145.068 184.023 145.068C186.386 145.068 188.432 144.614 190.159 143.705C191.902 142.795 193.242 141.508 194.182 139.841C195.121 138.159 195.591 136.189 195.591 133.932L197.5 134.227H184.864V127.636H203.75V133.227C203.75 137.212 202.902 140.659 201.205 143.568C199.508 146.477 197.174 148.72 194.205 150.295C191.235 151.856 187.826 152.636 183.977 152.636C179.689 152.636 175.924 151.674 172.682 149.75C169.455 147.811 166.932 145.061 165.114 141.5C163.311 137.924 162.409 133.682 162.409 128.773C162.409 125.015 162.939 121.659 164 118.705C165.076 115.75 166.576 113.242 168.5 111.182C170.424 109.106 172.682 107.53 175.273 106.455C177.864 105.364 180.682 104.818 183.727 104.818C186.303 104.818 188.705 105.197 190.932 105.955C193.159 106.697 195.136 107.758 196.864 109.136C198.606 110.515 200.038 112.152 201.159 114.045C202.28 115.939 203.015 118.03 203.364 120.318H194.773ZM211.54 152V117.091H219.517V122.909H219.881C220.517 120.894 221.608 119.341 223.153 118.25C224.714 117.144 226.494 116.591 228.494 116.591C228.949 116.591 229.456 116.614 230.017 116.659C230.593 116.689 231.07 116.742 231.449 116.818V124.386C231.1 124.265 230.547 124.159 229.79 124.068C229.047 123.962 228.328 123.909 227.631 123.909C226.131 123.909 224.782 124.235 223.585 124.886C222.403 125.523 221.472 126.409 220.79 127.545C220.108 128.682 219.767 129.992 219.767 131.477V152H211.54ZM246.335 152.705C244.123 152.705 242.131 152.311 240.358 151.523C238.6 150.72 237.206 149.538 236.176 147.977C235.161 146.417 234.653 144.492 234.653 142.205C234.653 140.235 235.017 138.606 235.744 137.318C236.472 136.03 237.464 135 238.722 134.227C239.979 133.455 241.396 132.871 242.972 132.477C244.563 132.068 246.206 131.773 247.903 131.591C249.949 131.379 251.608 131.189 252.881 131.023C254.153 130.841 255.078 130.568 255.653 130.205C256.244 129.826 256.54 129.242 256.54 128.455V128.318C256.54 126.606 256.032 125.28 255.017 124.341C254.002 123.402 252.54 122.932 250.631 122.932C248.616 122.932 247.017 123.371 245.835 124.25C244.669 125.129 243.881 126.167 243.472 127.364L235.79 126.273C236.396 124.152 237.396 122.379 238.79 120.955C240.184 119.515 241.888 118.439 243.903 117.727C245.919 117 248.146 116.636 250.585 116.636C252.267 116.636 253.941 116.833 255.608 117.227C257.275 117.621 258.797 118.273 260.176 119.182C261.555 120.076 262.661 121.295 263.494 122.841C264.343 124.386 264.767 126.318 264.767 128.636V152H256.858V147.205H256.585C256.085 148.174 255.381 149.083 254.472 149.932C253.578 150.765 252.449 151.439 251.085 151.955C249.737 152.455 248.153 152.705 246.335 152.705ZM248.472 146.659C250.123 146.659 251.555 146.333 252.767 145.682C253.979 145.015 254.911 144.136 255.562 143.045C256.229 141.955 256.562 140.765 256.562 139.477V135.364C256.305 135.576 255.866 135.773 255.244 135.955C254.638 136.136 253.956 136.295 253.199 136.432C252.441 136.568 251.691 136.689 250.949 136.795C250.206 136.902 249.563 136.992 249.017 137.068C247.79 137.235 246.691 137.508 245.722 137.886C244.752 138.265 243.987 138.795 243.426 139.477C242.866 140.144 242.585 141.008 242.585 142.068C242.585 143.583 243.138 144.727 244.244 145.5C245.35 146.273 246.759 146.659 248.472 146.659ZM273.04 165.091V117.091H281.131V122.864H281.608C282.032 122.015 282.631 121.114 283.403 120.159C284.176 119.189 285.222 118.364 286.54 117.682C287.858 116.985 289.54 116.636 291.585 116.636C294.282 116.636 296.714 117.326 298.881 118.705C301.063 120.068 302.79 122.091 304.062 124.773C305.35 127.439 305.994 130.712 305.994 134.591C305.994 138.424 305.366 141.682 304.108 144.364C302.85 147.045 301.138 149.091 298.972 150.5C296.805 151.909 294.35 152.614 291.608 152.614C289.608 152.614 287.949 152.28 286.631 151.614C285.313 150.947 284.252 150.144 283.449 149.205C282.661 148.25 282.047 147.348 281.608 146.5H281.267V165.091H273.04ZM281.108 134.545C281.108 136.803 281.426 138.78 282.062 140.477C282.714 142.174 283.646 143.5 284.858 144.455C286.085 145.394 287.57 145.864 289.312 145.864C291.131 145.864 292.653 145.379 293.881 144.409C295.108 143.424 296.032 142.083 296.653 140.386C297.29 138.674 297.608 136.727 297.608 134.545C297.608 132.379 297.297 130.455 296.676 128.773C296.055 127.091 295.131 125.773 293.903 124.818C292.676 123.864 291.146 123.386 289.312 123.386C287.555 123.386 286.062 123.848 284.835 124.773C283.608 125.697 282.676 126.992 282.04 128.659C281.419 130.326 281.108 132.288 281.108 134.545ZM321.267 131.545V152H313.04V105.455H321.085V123.023H321.494C322.313 121.053 323.578 119.5 325.29 118.364C327.017 117.212 329.214 116.636 331.881 116.636C334.305 116.636 336.419 117.144 338.222 118.159C340.025 119.174 341.419 120.659 342.403 122.614C343.403 124.568 343.903 126.955 343.903 129.773V152H335.676V131.045C335.676 128.697 335.07 126.871 333.858 125.568C332.661 124.25 330.979 123.591 328.812 123.591C327.358 123.591 326.055 123.909 324.903 124.545C323.767 125.167 322.873 126.068 322.222 127.25C321.585 128.432 321.267 129.864 321.267 131.545ZM352.29 152V117.091H360.517V152H352.29ZM356.426 112.136C355.123 112.136 354.002 111.705 353.062 110.841C352.123 109.962 351.653 108.909 351.653 107.682C351.653 106.439 352.123 105.386 353.062 104.523C354.002 103.644 355.123 103.205 356.426 103.205C357.744 103.205 358.866 103.644 359.79 104.523C360.729 105.386 361.199 106.439 361.199 107.682C361.199 108.909 360.729 109.962 359.79 110.841C358.866 111.705 357.744 112.136 356.426 112.136ZM386.409 117.091V123.455H366.341V117.091H386.409ZM371.295 108.727H379.523V141.5C379.523 142.606 379.689 143.455 380.023 144.045C380.371 144.621 380.826 145.015 381.386 145.227C381.947 145.439 382.568 145.545 383.25 145.545C383.765 145.545 384.235 145.508 384.659 145.432C385.098 145.356 385.432 145.288 385.659 145.227L387.045 151.659C386.606 151.811 385.977 151.977 385.159 152.159C384.356 152.341 383.371 152.447 382.205 152.477C380.144 152.538 378.288 152.227 376.636 151.545C374.985 150.848 373.674 149.773 372.705 148.318C371.75 146.864 371.28 145.045 371.295 142.864V108.727Z" fill="black"/>
<path d="M106.014 170.96L145.5 129.5M106.014 170.96L101.351 133.939M106.014 170.96L84.3508 117.707M145.5 129.5L120.558 77.3521M145.5 129.5L101.351 133.939M120.558 77.3521L101.351 133.939M120.558 77.3521L84.3508 117.707M101.351 133.939L84.3508 117.707" stroke="black" stroke-width="4"/>
</svg>
